<mxfile host="app.diagrams.net" modified="2023-04-14T11:35:30.066Z" agent="Mozilla/5.0 (X11; Linux x86_64) AppleWebKit/537.36 (KHTML, like Gecko) Chrome/109.0.0.0 Safari/537.36" etag="W4clUpbhzs_tYVH2JGqT" version="21.1.7" type="github">
  <diagram id="prtHgNgQTEPvFCAcTncT" name="Page-1">
    <mxGraphModel dx="1225" dy="738" grid="0" gridSize="10" guides="1" tooltips="1" connect="1" arrows="1" fold="1" page="1" pageScale="1" pageWidth="827" pageHeight="1169" math="0" shadow="0">
      <root>
        <mxCell id="0" />
        <mxCell id="1" parent="0" />
        <mxCell id="dNxyNK7c78bLwvsdeMH5-19" value="发版流程&lt;br&gt;" style="swimlane;html=1;childLayout=stackLayout;resizeParent=1;resizeParentMax=0;horizontal=0;startSize=20;horizontalStack=0;" parent="1" vertex="1">
          <mxGeometry x="120" y="237" width="450" height="533" as="geometry" />
        </mxCell>
        <mxCell id="dNxyNK7c78bLwvsdeMH5-20" value="Prerelease&lt;br&gt;" style="swimlane;html=1;startSize=20;horizontal=0;" parent="dNxyNK7c78bLwvsdeMH5-19" vertex="1">
          <mxGeometry x="20" width="430" height="177" as="geometry" />
        </mxCell>
        <mxCell id="dNxyNK7c78bLwvsdeMH5-25" value="" style="edgeStyle=orthogonalEdgeStyle;rounded=0;orthogonalLoop=1;jettySize=auto;html=1;" parent="dNxyNK7c78bLwvsdeMH5-20" source="dNxyNK7c78bLwvsdeMH5-23" target="dNxyNK7c78bLwvsdeMH5-24" edge="1">
          <mxGeometry relative="1" as="geometry" />
        </mxCell>
        <mxCell id="dNxyNK7c78bLwvsdeMH5-23" value="&lt;a href=&quot;http://jenkins.autowise.ai/job/aw_autowise_prerelease/&quot;&gt;Prerelease&lt;/a&gt;" style="ellipse;whiteSpace=wrap;html=1;" parent="dNxyNK7c78bLwvsdeMH5-20" vertex="1">
          <mxGeometry x="30" y="35" width="60" height="50" as="geometry" />
        </mxCell>
        <mxCell id="paGthWQcGo8uKa_LO1mT-5" style="edgeStyle=orthogonalEdgeStyle;rounded=0;orthogonalLoop=1;jettySize=auto;html=1;" parent="dNxyNK7c78bLwvsdeMH5-20" source="dNxyNK7c78bLwvsdeMH5-24" edge="1">
          <mxGeometry relative="1" as="geometry">
            <mxPoint x="330" y="60" as="targetPoint" />
          </mxGeometry>
        </mxCell>
        <mxCell id="dNxyNK7c78bLwvsdeMH5-24" value="X86 release&lt;br&gt;Arm release&lt;br&gt;Xavier release&lt;br&gt;..." style="rounded=0;whiteSpace=wrap;html=1;fontFamily=Helvetica;fontSize=12;fontColor=#000000;align=center;" parent="dNxyNK7c78bLwvsdeMH5-20" vertex="1">
          <mxGeometry x="175" y="32.5" width="80" height="55" as="geometry" />
        </mxCell>
        <mxCell id="dNxyNK7c78bLwvsdeMH5-32" value="下游任务" style="ellipse;whiteSpace=wrap;html=1;" parent="dNxyNK7c78bLwvsdeMH5-20" vertex="1">
          <mxGeometry x="335" y="32.5" width="60" height="55" as="geometry" />
        </mxCell>
        <mxCell id="paGthWQcGo8uKa_LO1mT-13" style="edgeStyle=orthogonalEdgeStyle;rounded=0;orthogonalLoop=1;jettySize=auto;html=1;exitX=0;exitY=0.5;exitDx=0;exitDy=0;" parent="dNxyNK7c78bLwvsdeMH5-19" source="paGthWQcGo8uKa_LO1mT-8" edge="1">
          <mxGeometry relative="1" as="geometry">
            <mxPoint x="140" y="423" as="targetPoint" />
          </mxGeometry>
        </mxCell>
        <mxCell id="paGthWQcGo8uKa_LO1mT-6" style="edgeStyle=orthogonalEdgeStyle;rounded=0;orthogonalLoop=1;jettySize=auto;html=1;entryX=0.5;entryY=0;entryDx=0;entryDy=0;" parent="dNxyNK7c78bLwvsdeMH5-19" target="paGthWQcGo8uKa_LO1mT-7" edge="1">
          <mxGeometry relative="1" as="geometry">
            <mxPoint x="362" y="140.5" as="targetPoint" />
            <mxPoint x="383" y="91" as="sourcePoint" />
            <Array as="points">
              <mxPoint x="383" y="88" />
              <mxPoint x="383" y="150" />
              <mxPoint x="385" y="150" />
            </Array>
          </mxGeometry>
        </mxCell>
        <mxCell id="dNxyNK7c78bLwvsdeMH5-21" value="模块测试&lt;br&gt;" style="swimlane;html=1;startSize=20;horizontal=0;" parent="dNxyNK7c78bLwvsdeMH5-19" vertex="1">
          <mxGeometry x="20" y="177" width="430" height="196" as="geometry" />
        </mxCell>
        <mxCell id="dNxyNK7c78bLwvsdeMH5-26" value="&lt;a href=&quot;http://jenkins.autowise.ai/job/aw_perception_benchmark_release/&quot;&gt;感知编译&lt;/a&gt;&lt;br&gt;&lt;a href=&quot;http://jenkins.autowise.ai/job/aw_perception_benchmark_fusion/&quot;&gt;fusion&lt;/a&gt;&lt;br&gt;&lt;a href=&quot;http://jenkins.autowise.ai/job/aw_perception_benchmark_segmentation/&quot;&gt;segmentation&lt;/a&gt;" style="rounded=0;whiteSpace=wrap;html=1;fontFamily=Helvetica;fontSize=12;fontColor=#000000;align=center;" parent="dNxyNK7c78bLwvsdeMH5-21" vertex="1">
          <mxGeometry x="140" y="52" width="100" height="60" as="geometry" />
        </mxCell>
        <mxCell id="paGthWQcGo8uKa_LO1mT-9" style="edgeStyle=orthogonalEdgeStyle;rounded=0;orthogonalLoop=1;jettySize=auto;html=1;entryX=1;entryY=0.5;entryDx=0;entryDy=0;" parent="dNxyNK7c78bLwvsdeMH5-21" source="paGthWQcGo8uKa_LO1mT-7" target="dNxyNK7c78bLwvsdeMH5-26" edge="1">
          <mxGeometry relative="1" as="geometry" />
        </mxCell>
        <mxCell id="paGthWQcGo8uKa_LO1mT-10" style="edgeStyle=orthogonalEdgeStyle;rounded=0;orthogonalLoop=1;jettySize=auto;html=1;exitX=0;exitY=0.5;exitDx=0;exitDy=0;entryX=1;entryY=0.5;entryDx=0;entryDy=0;" parent="dNxyNK7c78bLwvsdeMH5-21" source="paGthWQcGo8uKa_LO1mT-7" target="paGthWQcGo8uKa_LO1mT-8" edge="1">
          <mxGeometry relative="1" as="geometry" />
        </mxCell>
        <mxCell id="paGthWQcGo8uKa_LO1mT-7" value="&lt;a href=&quot;http://jenkins.autowise.ai/job/aw_autowise_prerelease_simulation_perception&quot;&gt;perception &amp;amp;&amp;nbsp;&lt;br&gt;simulation&lt;/a&gt;" style="ellipse;whiteSpace=wrap;html=1;" parent="dNxyNK7c78bLwvsdeMH5-21" vertex="1">
          <mxGeometry x="328" y="85" width="70" height="70" as="geometry" />
        </mxCell>
        <mxCell id="paGthWQcGo8uKa_LO1mT-8" value="&lt;a href=&quot;http://jenkins.autowise.ai/job/aw_simulation_release/&quot;&gt;仿真编译&lt;/a&gt;&lt;br&gt;&lt;a href=&quot;http://jenkins.autowise.ai/job/aw_autowise_regression_platform_test/&quot;&gt;平台仿真&lt;/a&gt;&lt;br&gt;&lt;a href=&quot;http://jenkins.autowise.ai/job/aw_autowise_monitor/&quot;&gt;性能测试&lt;/a&gt;" style="rounded=0;whiteSpace=wrap;html=1;fontFamily=Helvetica;fontSize=12;fontColor=#000000;align=center;" parent="dNxyNK7c78bLwvsdeMH5-21" vertex="1">
          <mxGeometry x="139" y="130" width="101" height="50" as="geometry" />
        </mxCell>
        <mxCell id="paGthWQcGo8uKa_LO1mT-15" value="&lt;a href=&quot;http://jenkins.autowise.ai/job/aw_autowise_version_label/&quot;&gt;修改标签&lt;/a&gt;" style="rounded=0;whiteSpace=wrap;html=1;" parent="dNxyNK7c78bLwvsdeMH5-21" vertex="1">
          <mxGeometry x="30" y="100" width="60" height="30" as="geometry" />
        </mxCell>
        <mxCell id="paGthWQcGo8uKa_LO1mT-16" value="" style="endArrow=classic;html=1;rounded=0;entryX=1;entryY=0.5;entryDx=0;entryDy=0;" parent="dNxyNK7c78bLwvsdeMH5-21" target="paGthWQcGo8uKa_LO1mT-15" edge="1">
          <mxGeometry width="50" height="50" relative="1" as="geometry">
            <mxPoint x="120" y="115" as="sourcePoint" />
            <mxPoint x="100" y="100" as="targetPoint" />
          </mxGeometry>
        </mxCell>
        <mxCell id="paGthWQcGo8uKa_LO1mT-17" value="通过" style="text;html=1;strokeColor=none;fillColor=none;align=center;verticalAlign=middle;whiteSpace=wrap;rounded=0;" parent="dNxyNK7c78bLwvsdeMH5-21" vertex="1">
          <mxGeometry x="71" y="65" width="60" height="30" as="geometry" />
        </mxCell>
        <mxCell id="Bg97Y_3P5Fy_UihjfmW1-1" value="&lt;a href=&quot;http://jenkins.autowise.ai/job/autowise_platform_node_test/&quot;&gt;平台测试&lt;/a&gt;" style="rounded=0;whiteSpace=wrap;html=1;" vertex="1" parent="dNxyNK7c78bLwvsdeMH5-21">
          <mxGeometry x="140" y="7" width="100" height="34" as="geometry" />
        </mxCell>
        <mxCell id="Bg97Y_3P5Fy_UihjfmW1-2" value="" style="endArrow=classic;html=1;rounded=0;entryX=1;entryY=0.5;entryDx=0;entryDy=0;" edge="1" parent="dNxyNK7c78bLwvsdeMH5-21" target="Bg97Y_3P5Fy_UihjfmW1-1">
          <mxGeometry width="50" height="50" relative="1" as="geometry">
            <mxPoint x="364" y="25" as="sourcePoint" />
            <mxPoint x="277" y="27" as="targetPoint" />
          </mxGeometry>
        </mxCell>
        <mxCell id="dNxyNK7c78bLwvsdeMH5-22" value="灰度测试&lt;br&gt;" style="swimlane;html=1;startSize=20;horizontal=0;" parent="dNxyNK7c78bLwvsdeMH5-19" vertex="1">
          <mxGeometry x="20" y="373" width="430" height="160" as="geometry" />
        </mxCell>
        <mxCell id="dNxyNK7c78bLwvsdeMH5-37" value="" style="edgeStyle=orthogonalEdgeStyle;rounded=0;orthogonalLoop=1;jettySize=auto;html=1;endArrow=classic;endFill=1;" parent="dNxyNK7c78bLwvsdeMH5-22" source="dNxyNK7c78bLwvsdeMH5-34" target="dNxyNK7c78bLwvsdeMH5-36" edge="1">
          <mxGeometry relative="1" as="geometry" />
        </mxCell>
        <mxCell id="dNxyNK7c78bLwvsdeMH5-34" value="灰度实车测试" style="rounded=0;whiteSpace=wrap;html=1;fontFamily=Helvetica;fontSize=12;fontColor=#000000;align=center;" parent="dNxyNK7c78bLwvsdeMH5-22" vertex="1">
          <mxGeometry x="80" y="50" width="80" height="60" as="geometry" />
        </mxCell>
        <mxCell id="dNxyNK7c78bLwvsdeMH5-36" value="发正式版" style="rhombus;whiteSpace=wrap;html=1;fontFamily=Helvetica;fontSize=12;fontColor=#000000;align=center;" parent="dNxyNK7c78bLwvsdeMH5-22" vertex="1">
          <mxGeometry x="350" y="50" width="60" height="60" as="geometry" />
        </mxCell>
        <mxCell id="paGthWQcGo8uKa_LO1mT-18" value="通过" style="text;html=1;strokeColor=none;fillColor=none;align=center;verticalAlign=middle;whiteSpace=wrap;rounded=0;" parent="dNxyNK7c78bLwvsdeMH5-22" vertex="1">
          <mxGeometry x="230" y="50" width="60" height="30" as="geometry" />
        </mxCell>
        <mxCell id="Bg97Y_3P5Fy_UihjfmW1-3" style="edgeStyle=orthogonalEdgeStyle;rounded=0;orthogonalLoop=1;jettySize=auto;html=1;exitX=0;exitY=0.5;exitDx=0;exitDy=0;entryX=0.5;entryY=0;entryDx=0;entryDy=0;" edge="1" parent="dNxyNK7c78bLwvsdeMH5-19" source="Bg97Y_3P5Fy_UihjfmW1-1" target="dNxyNK7c78bLwvsdeMH5-34">
          <mxGeometry relative="1" as="geometry">
            <mxPoint x="128.2365996262124" y="214.15551021181318" as="targetPoint" />
            <Array as="points">
              <mxPoint x="139" y="201" />
              <mxPoint x="139" y="321" />
              <mxPoint x="140" y="321" />
            </Array>
          </mxGeometry>
        </mxCell>
        <mxCell id="paGthWQcGo8uKa_LO1mT-14" style="edgeStyle=orthogonalEdgeStyle;rounded=0;orthogonalLoop=1;jettySize=auto;html=1;exitX=0;exitY=0.5;exitDx=0;exitDy=0;entryX=0.5;entryY=0;entryDx=0;entryDy=0;" parent="dNxyNK7c78bLwvsdeMH5-19" source="dNxyNK7c78bLwvsdeMH5-26" edge="1" target="dNxyNK7c78bLwvsdeMH5-34">
          <mxGeometry relative="1" as="geometry">
            <mxPoint x="140" y="367" as="targetPoint" />
          </mxGeometry>
        </mxCell>
        <mxCell id="paGthWQcGo8uKa_LO1mT-11" value="（仿真版本与prerelease&lt;br&gt;版本有时间差，两个版本发布时间差过短会造成仿真版本间差异大）&lt;br&gt;-将感知和仿真任务拆开" style="ellipse;shape=cloud;whiteSpace=wrap;html=1;" parent="1" vertex="1">
          <mxGeometry x="620" y="640" width="190" height="100" as="geometry" />
        </mxCell>
      </root>
    </mxGraphModel>
  </diagram>
</mxfile>
